# xmcd
#
# Track frame offsets:
#	150
#	17986
#	32262
#	50390
#	68337
#	84768
#	97682
#	112012
#	131257
#	148129
#	163369
#	174831
#	190702
#
# Disc length: 2749 seconds
#
# Revision: 2
# Processed by: cddbd v1.5.2PL0 Copyright (c) Steve Scherf et al.
# Submitted via: audiograbber 1.83.01
#
DISCID=970abb0d
DTITLE=Woodie and Cleda Jane Cochran - Leather and Lace
DYEAR=1900
DGENRE=
TTITLE0=Whisper, Whisper
TTITLE1=A Woman Knows
TTITLE2=Holes In My Shoes
TTITLE3=After Goodbye
TTITLE4=Queensize Bed
TTITLE5=Srange
TTITLE6=The Spell
TTITLE7=Paper Thin Walls
TTITLE8=When You Were Mine
TTITLE9=Broken Hearted Memory
TTITLE10=Goodnite Kiss
TTITLE11=It's Me and It's You
TTITLE12=Truck Stop Trixie
EXTD=
EXTT0=
EXTT1=
EXTT2=
EXTT3=
EXTT4=
EXTT5=
EXTT6=
EXTT7=
EXTT8=
EXTT9=
EXTT10=
EXTT11=
EXTT12=
PLAYORDER=
